<svg width="100" height="100" viewBox="0 0 100 100" fill="none" xmlns="http://www.w3.org/2000/svg">
<path d="M49.9999 62.5C56.9035 62.5 62.4999 56.9036 62.4999 50C62.4999 43.0965 56.9035 37.5 49.9999 37.5C43.0964 37.5 37.4999 43.0965 37.4999 50C37.4999 56.9036 43.0964 62.5 49.9999 62.5Z" fill="#FFCA28"/>
<path d="M78.0302 61.3637C77.526 62.5062 77.3756 63.7735 77.5984 65.0023C77.8212 66.231 78.407 67.3649 79.2802 68.2576L79.5075 68.4849C80.2119 69.1885 80.7706 70.024 81.1519 70.9437C81.5331 71.8634 81.7294 72.8492 81.7294 73.8447C81.7294 74.8403 81.5331 75.8261 81.1519 76.7458C80.7706 77.6655 80.2119 78.501 79.5075 79.2046C78.8039 79.9089 77.9684 80.4677 77.0487 80.849C76.129 81.2302 75.1432 81.4265 74.1476 81.4265C73.1521 81.4265 72.1663 81.2302 71.2466 80.849C70.3269 80.4677 69.4914 79.9089 68.7878 79.2046L68.5605 78.9773C67.6678 78.1041 66.5339 77.5183 65.3052 77.2955C64.0764 77.0727 62.8091 77.2231 61.6666 77.7273C60.5462 78.2075 59.5908 79.0048 58.9177 80.021C58.2447 81.0373 57.8836 82.2281 57.8787 83.447V84.0909C57.8787 86.1002 57.0805 88.0271 55.6598 89.4478C54.2391 90.8685 52.3122 91.6667 50.3029 91.6667C48.2937 91.6667 46.3668 90.8685 44.9461 89.4478C43.5253 88.0271 42.7272 86.1002 42.7272 84.0909V83.75C42.6979 82.4963 42.292 81.2803 41.5625 80.2603C40.8329 79.2402 39.8133 78.4632 38.6363 78.0303C37.4938 77.5261 36.2265 77.3757 34.9977 77.5985C33.7689 77.8213 32.6351 78.4071 31.7423 79.2803L31.5151 79.5076C30.8115 80.212 29.976 80.7708 29.0563 81.152C28.1366 81.5333 27.1508 81.7295 26.1552 81.7295C25.1596 81.7295 24.1738 81.5333 23.2542 81.152C22.3345 80.7708 21.499 80.212 20.7954 79.5076C20.091 78.804 19.5322 77.9685 19.151 77.0488C18.7697 76.1292 18.5735 75.1433 18.5735 74.1478C18.5735 73.1522 18.7697 72.1664 19.151 71.2467C19.5322 70.327 20.091 69.4915 20.7954 68.7879L21.0226 68.5606C21.8959 67.6679 22.4817 66.5341 22.7045 65.3053C22.9273 64.0765 22.7769 62.8092 22.2726 61.6667C21.7925 60.5464 20.9952 59.5909 19.979 58.9179C18.9627 58.2449 17.7718 57.8837 16.5529 57.8788H15.909C13.8998 57.8788 11.9729 57.0807 10.5521 55.6599C9.13141 54.2392 8.33325 52.3123 8.33325 50.3031C8.33325 48.2939 9.13141 46.3669 10.5521 44.9462C11.9729 43.5255 13.8998 42.7273 15.909 42.7273H16.2499C17.5037 42.698 18.7196 42.2922 19.7397 41.5626C20.7597 40.833 21.5367 39.8134 21.9696 38.6364C22.4738 37.4939 22.6242 36.2266 22.4015 34.9978C22.1787 33.769 21.5929 32.6352 20.7196 31.7425L20.4923 31.5152C19.788 30.8116 19.2292 29.9761 18.848 29.0564C18.4667 28.1367 18.2705 27.1509 18.2705 26.1553C18.2705 25.1598 18.4667 24.174 18.848 23.2543C19.2292 22.3346 19.788 21.4991 20.4923 20.7955C21.1959 20.0911 22.0314 19.5323 22.9511 19.1511C23.8708 18.7699 24.8566 18.5736 25.8522 18.5736C26.8478 18.5736 27.8336 18.7699 28.7533 19.1511C29.6729 19.5323 30.5085 20.0911 31.212 20.7955L31.4393 21.0228C32.332 21.896 33.4659 22.4818 34.6947 22.7046C35.9234 22.9274 37.1908 22.777 38.3333 22.2728H38.6363C39.7566 21.7926 40.7121 20.9953 41.3851 19.9791C42.0581 18.9628 42.4193 17.772 42.4242 16.5531V15.9091C42.4242 13.8999 43.2223 11.973 44.643 10.5523C46.0638 9.13153 47.9907 8.33337 49.9999 8.33337C52.0091 8.33337 53.9361 9.13153 55.3568 10.5523C56.7775 11.973 57.5757 13.8999 57.5757 15.9091V16.25C57.5805 17.4689 57.9417 18.6598 58.6147 19.676C59.2877 20.6923 60.2432 21.4896 61.3636 21.9697C62.506 22.474 63.7734 22.6244 65.0021 22.4016C66.2309 22.1788 67.3648 21.593 68.2575 20.7197L68.4848 20.4925C69.1883 19.7881 70.0239 19.2293 70.9436 18.8481C71.8632 18.4668 72.849 18.2706 73.8446 18.2706C74.8402 18.2706 75.826 18.4668 76.7457 18.8481C77.6654 19.2293 78.5009 19.7881 79.2045 20.4925C79.9088 21.196 80.4676 22.0316 80.8489 22.9513C81.2301 23.8709 81.4263 24.8567 81.4263 25.8523C81.4263 26.8479 81.2301 27.8337 80.8489 28.7534C80.4676 29.6731 79.9088 30.5086 79.2045 31.2122L78.9772 31.4394C78.1039 32.3322 77.5182 33.466 77.2954 34.6948C77.0726 35.9235 77.223 37.1909 77.7272 38.3334V38.6364C78.2073 39.7567 79.0046 40.7122 80.0209 41.3852C81.0371 42.0583 82.228 42.4194 83.4469 42.4243H84.0908C86.1 42.4243 88.027 43.2224 89.4477 44.6432C90.8684 46.0639 91.6666 47.9908 91.6666 50C91.6666 52.0093 90.8684 53.9362 89.4477 55.3569C88.027 56.7776 86.1 57.5758 84.0908 57.5758H83.7499C82.531 57.5807 81.3402 57.9418 80.3239 58.6148C79.3077 59.2879 78.5104 60.2433 78.0302 61.3637Z" fill="#FFCA28"/>
<path d="M49.9999 62.5C56.9035 62.5 62.4999 56.9036 62.4999 50C62.4999 43.0965 56.9035 37.5 49.9999 37.5C43.0964 37.5 37.4999 43.0965 37.4999 50C37.4999 56.9036 43.0964 62.5 49.9999 62.5Z" stroke="black" stroke-width="3" stroke-linecap="round" stroke-linejoin="round"/>
<path d="M78.0302 61.3637C77.526 62.5062 77.3756 63.7735 77.5984 65.0023C77.8212 66.231 78.407 67.3649 79.2802 68.2576L79.5075 68.4849C80.2119 69.1885 80.7706 70.024 81.1519 70.9437C81.5331 71.8634 81.7294 72.8492 81.7294 73.8447C81.7294 74.8403 81.5331 75.8261 81.1519 76.7458C80.7706 77.6655 80.2119 78.501 79.5075 79.2046C78.8039 79.9089 77.9684 80.4677 77.0487 80.849C76.129 81.2302 75.1432 81.4265 74.1476 81.4265C73.1521 81.4265 72.1663 81.2302 71.2466 80.849C70.3269 80.4677 69.4914 79.9089 68.7878 79.2046L68.5605 78.9773C67.6678 78.1041 66.5339 77.5183 65.3052 77.2955C64.0764 77.0727 62.8091 77.2231 61.6666 77.7273C60.5462 78.2075 59.5908 79.0048 58.9177 80.021C58.2447 81.0373 57.8836 82.2281 57.8787 83.447V84.0909C57.8787 86.1002 57.0805 88.0271 55.6598 89.4478C54.2391 90.8685 52.3122 91.6667 50.3029 91.6667C48.2937 91.6667 46.3668 90.8685 44.9461 89.4478C43.5253 88.0271 42.7272 86.1002 42.7272 84.0909V83.75C42.6979 82.4963 42.292 81.2803 41.5625 80.2603C40.8329 79.2402 39.8133 78.4632 38.6363 78.0303C37.4938 77.5261 36.2265 77.3757 34.9977 77.5985C33.7689 77.8213 32.6351 78.4071 31.7423 79.2803L31.5151 79.5076C30.8115 80.212 29.976 80.7708 29.0563 81.152C28.1366 81.5333 27.1508 81.7295 26.1552 81.7295C25.1596 81.7295 24.1738 81.5333 23.2542 81.152C22.3345 80.7708 21.499 80.212 20.7954 79.5076C20.091 78.804 19.5322 77.9685 19.151 77.0488C18.7697 76.1292 18.5735 75.1433 18.5735 74.1478C18.5735 73.1522 18.7697 72.1664 19.151 71.2467C19.5322 70.327 20.091 69.4915 20.7954 68.7879L21.0226 68.5606C21.8959 67.6679 22.4817 66.5341 22.7045 65.3053C22.9273 64.0765 22.7769 62.8092 22.2726 61.6667C21.7925 60.5464 20.9952 59.5909 19.979 58.9179C18.9627 58.2449 17.7718 57.8837 16.5529 57.8788H15.909C13.8998 57.8788 11.9729 57.0807 10.5521 55.6599C9.13141 54.2392 8.33325 52.3123 8.33325 50.3031C8.33325 48.2939 9.13141 46.3669 10.5521 44.9462C11.9729 43.5255 13.8998 42.7273 15.909 42.7273H16.2499C17.5037 42.698 18.7196 42.2922 19.7397 41.5626C20.7597 40.833 21.5367 39.8134 21.9696 38.6364C22.4738 37.4939 22.6242 36.2266 22.4015 34.9978C22.1787 33.769 21.5929 32.6352 20.7196 31.7425L20.4923 31.5152C19.788 30.8116 19.2292 29.9761 18.848 29.0564C18.4667 28.1367 18.2705 27.1509 18.2705 26.1553C18.2705 25.1598 18.4667 24.174 18.848 23.2543C19.2292 22.3346 19.788 21.4991 20.4923 20.7955C21.1959 20.0911 22.0314 19.5323 22.9511 19.1511C23.8708 18.7699 24.8566 18.5736 25.8522 18.5736C26.8478 18.5736 27.8336 18.7699 28.7533 19.1511C29.6729 19.5323 30.5085 20.0911 31.212 20.7955L31.4393 21.0228C32.332 21.896 33.4659 22.4818 34.6947 22.7046C35.9234 22.9274 37.1908 22.777 38.3333 22.2728H38.6363C39.7566 21.7926 40.7121 20.9953 41.3851 19.9791C42.0581 18.9628 42.4193 17.772 42.4242 16.5531V15.9091C42.4242 13.8999 43.2223 11.973 44.643 10.5523C46.0638 9.13153 47.9907 8.33337 49.9999 8.33337C52.0091 8.33337 53.9361 9.13153 55.3568 10.5523C56.7775 11.973 57.5757 13.8999 57.5757 15.9091V16.25C57.5805 17.4689 57.9417 18.6598 58.6147 19.676C59.2877 20.6923 60.2432 21.4896 61.3636 21.9697C62.506 22.474 63.7734 22.6244 65.0021 22.4016C66.2309 22.1788 67.3648 21.593 68.2575 20.7197L68.4848 20.4925C69.1883 19.7881 70.0239 19.2293 70.9436 18.8481C71.8632 18.4668 72.849 18.2706 73.8446 18.2706C74.8402 18.2706 75.826 18.4668 76.7457 18.8481C77.6654 19.2293 78.5009 19.7881 79.2045 20.4925C79.9088 21.196 80.4676 22.0316 80.8489 22.9513C81.2301 23.8709 81.4263 24.8567 81.4263 25.8523C81.4263 26.8479 81.2301 27.8337 80.8489 28.7534C80.4676 29.6731 79.9088 30.5086 79.2045 31.2122L78.9772 31.4394C78.1039 32.3322 77.5182 33.466 77.2954 34.6948C77.0726 35.9235 77.223 37.1909 77.7272 38.3334V38.6364C78.2073 39.7567 79.0046 40.7122 80.0209 41.3852C81.0371 42.0583 82.228 42.4194 83.4469 42.4243H84.0908C86.1 42.4243 88.027 43.2224 89.4477 44.6432C90.8684 46.0639 91.6666 47.9908 91.6666 50C91.6666 52.0093 90.8684 53.9362 89.4477 55.3569C88.027 56.7776 86.1 57.5758 84.0908 57.5758H83.7499C82.531 57.5807 81.3402 57.9418 80.3239 58.6148C79.3077 59.2879 78.5104 60.2433 78.0302 61.3637Z" stroke="black" stroke-width="3" stroke-linecap="round" stroke-linejoin="round"/>
<circle cx="50" cy="50" r="11" fill="white"/>
</svg>
