<svg width="100" height="100" viewBox="0 0 100 100" fill="none" xmlns="http://www.w3.org/2000/svg">
<path d="M87.4985 47.9167C87.4985 67.4768 71.6419 83.3333 52.0819 83.3333C47.5953 83.3333 43.3035 82.4991 39.3533 80.9772C38.6311 80.699 38.27 80.5599 37.9828 80.4937C37.7004 80.4286 37.4959 80.4014 37.2063 80.3903C36.9118 80.379 36.5887 80.4124 35.9425 80.4792L14.6049 82.6849C12.5706 82.8952 11.5534 83.0003 10.9534 82.6343C10.4308 82.3155 10.0748 81.783 9.98009 81.1782C9.87131 80.4839 10.3574 79.5842 11.3295 77.7848L18.1447 65.1701C18.706 64.1312 18.9866 63.6118 19.1137 63.1123C19.2393 62.619 19.2696 62.2633 19.2295 61.756C19.1888 61.2422 18.9634 60.5734 18.5126 59.2359C17.3145 55.6816 16.6652 51.875 16.6652 47.9167C16.6652 28.3566 32.5218 12.5 52.0819 12.5C71.6419 12.5 87.4985 28.3566 87.4985 47.9167Z" fill="#FDD835"/>
<path d="M39.5819 47.9167L47.9152 56.25L66.6652 37.5M52.0819 83.3333C71.6419 83.3333 87.4985 67.4768 87.4985 47.9167C87.4985 28.3566 71.6419 12.5 52.0819 12.5C32.5218 12.5 16.6652 28.3566 16.6652 47.9167C16.6652 51.875 17.3146 55.6816 18.5126 59.2359C18.9634 60.5734 19.1888 61.2422 19.2295 61.756C19.2696 62.2633 19.2393 62.619 19.1137 63.1123C18.9866 63.6118 18.706 64.1312 18.1447 65.1701L11.3295 77.7848C10.3574 79.5842 9.87131 80.4839 9.98009 81.1782C10.0748 81.783 10.4308 82.3155 10.9534 82.6343C11.5534 83.0003 12.5706 82.8952 14.6049 82.6849L35.9425 80.4792C36.5887 80.4124 36.9118 80.379 37.2063 80.3903C37.4959 80.4014 37.7004 80.4286 37.9828 80.4937C38.27 80.5599 38.6311 80.699 39.3533 80.9772C43.3035 82.4991 47.5953 83.3333 52.0819 83.3333Z" stroke="black" stroke-width="3" stroke-linecap="round" stroke-linejoin="round"/>
</svg>
