<svg width="100" height="100" viewBox="0 0 100 100" fill="none" xmlns="http://www.w3.org/2000/svg">
<path d="M49.9999 91.6667C73.0118 91.6667 91.6666 73.0119 91.6666 50C91.6666 26.9882 73.0118 8.33337 49.9999 8.33337C26.9881 8.33337 8.33325 26.9882 8.33325 50C8.33325 73.0119 26.9881 91.6667 49.9999 91.6667Z" fill="#FDD835"/>
<path d="M35.4166 61.1112C35.4166 66.4806 39.7694 70.8334 45.1388 70.8334H54.1666C59.9195 70.8334 64.5832 66.1697 64.5832 60.4167C64.5832 54.6637 59.9195 50 54.1666 50H45.8333C40.0803 50 35.4166 45.3363 35.4166 39.5834C35.4166 33.8304 40.0803 29.1667 45.8333 29.1667H54.861C60.2305 29.1667 64.5832 33.5195 64.5832 38.8889M49.9999 22.9167V29.1667M49.9999 70.8334V77.0834M91.6666 50C91.6666 73.0119 73.0118 91.6667 49.9999 91.6667C26.9881 91.6667 8.33325 73.0119 8.33325 50C8.33325 26.9882 26.9881 8.33337 49.9999 8.33337C73.0118 8.33337 91.6666 26.9882 91.6666 50Z" stroke="black" stroke-width="3" stroke-linecap="round" stroke-linejoin="round"/>
</svg>
