<svg width="100" height="100" viewBox="0 0 100 100" fill="none" xmlns="http://www.w3.org/2000/svg">
<path d="M49.9999 91.6666C73.0118 91.6666 91.6666 73.0118 91.6666 50C91.6666 26.9881 73.0118 8.33331 49.9999 8.33331C26.9881 8.33331 8.33325 26.9881 8.33325 50C8.33325 73.0118 26.9881 91.6666 49.9999 91.6666Z" fill="#FDD835"/>
<path d="M49.9999 25V50L66.6666 58.3333" fill="#FDD835"/>
<path d="M49.9999 25V50L66.6666 58.3333M91.6666 50C91.6666 73.0118 73.0118 91.6666 49.9999 91.6666C26.9881 91.6666 8.33325 73.0118 8.33325 50C8.33325 26.9881 26.9881 8.33331 49.9999 8.33331C73.0118 8.33331 91.6666 26.9881 91.6666 50Z" stroke="black" stroke-width="3" stroke-linecap="round" stroke-linejoin="round"/>
</svg>
