<svg width="100" height="100" viewBox="0 0 100 100" fill="none" xmlns="http://www.w3.org/2000/svg">
<path d="M39.5833 50C49.9386 50 58.3333 41.6053 58.3333 31.25C58.3333 20.8947 49.9386 12.5 39.5833 12.5C29.2279 12.5 20.8333 20.8947 20.8333 31.25C20.8333 41.6053 29.2279 50 39.5833 50Z" fill="#FFCA28"/>
<path d="M66.6666 14.449C72.8404 17.5171 77.0832 23.8881 77.0832 31.25C77.0832 38.6119 72.8404 44.9829 66.6666 48.051M74.9999 69.86C81.2977 72.7097 86.9688 77.3541 91.6666 83.3333M8.33325 83.3333C16.4436 73.0108 27.4548 66.6667 39.5833 66.6667C51.7117 66.6667 62.7229 73.0108 70.8332 83.3333M58.3333 31.25C58.3333 41.6053 49.9386 50 39.5833 50C29.2279 50 20.8333 41.6053 20.8333 31.25C20.8333 20.8947 29.2279 12.5 39.5833 12.5C49.9386 12.5 58.3333 20.8947 58.3333 31.25Z" stroke="black" stroke-width="3" stroke-linecap="round" stroke-linejoin="round"/>
</svg>
