<svg width="30" height="30" viewBox="0 0 30 30" fill="none" xmlns="http://www.w3.org/2000/svg">
<path d="M3.75 9.75C3.75 7.6498 3.75 6.5997 4.15873 5.79754C4.51825 5.09193 5.09193 4.51825 5.79754 4.15873C6.5997 3.75 7.6498 3.75 9.75 3.75H20.25C22.3502 3.75 23.4003 3.75 24.2025 4.15873C24.9081 4.51825 25.4817 5.09193 25.8413 5.79754C26.25 6.5997 26.25 7.6498 26.25 9.75V20.25C26.25 22.3502 26.25 23.4003 25.8413 24.2025C25.4817 24.9081 24.9081 25.4817 24.2025 25.8413C23.4003 26.25 22.3502 26.25 20.25 26.25H9.75C7.6498 26.25 6.5997 26.25 5.79754 25.8413C5.09193 25.4817 4.51825 24.9081 4.15873 24.2025C3.75 23.4003 3.75 22.3502 3.75 20.25V9.75Z" fill="#FDD835"/>
<path d="M9.375 15L13.125 18.75L20.625 11.25M9.75 26.25H20.25C22.3502 26.25 23.4003 26.25 24.2025 25.8413C24.9081 25.4817 25.4817 24.9081 25.8413 24.2025C26.25 23.4003 26.25 22.3502 26.25 20.25V9.75C26.25 7.6498 26.25 6.5997 25.8413 5.79754C25.4817 5.09193 24.9081 4.51825 24.2025 4.15873C23.4003 3.75 22.3502 3.75 20.25 3.75H9.75C7.6498 3.75 6.5997 3.75 5.79754 4.15873C5.09193 4.51825 4.51825 5.09193 4.15873 5.79754C3.75 6.5997 3.75 7.6498 3.75 9.75V20.25C3.75 22.3502 3.75 23.4003 4.15873 24.2025C4.51825 24.9081 5.09193 25.4817 5.79754 25.8413C6.5997 26.25 7.6498 26.25 9.75 26.25Z" stroke="black" stroke-width="2" stroke-linecap="round" stroke-linejoin="round"/>
</svg>
