<svg width="54" height="64" viewBox="0 0 54 64" fill="none" xmlns="http://www.w3.org/2000/svg">
<path d="M41.0057 25.0992C40.1401 23.5704 38.1496 23.1132 36.7037 24.111L18.4546 36.7045C18.1421 36.9202 18.046 37.3387 18.233 37.6691C18.4166 37.9934 18.8142 38.1284 19.1572 37.9829L39.5704 29.3268C41.2155 28.6292 41.886 26.6543 41.0057 25.0992Z" fill="#FDD835"/>
<path d="M46.2913 49.2724C46.2894 47.5155 44.7811 46.1386 43.0313 46.2963L20.9484 48.2877C20.5702 48.3218 20.2807 48.639 20.281 49.0187C20.2814 49.3913 20.5613 49.7044 20.9315 49.7464L42.9626 52.2477C44.7381 52.4492 46.2931 51.0593 46.2913 49.2724Z" fill="#FDD835"/>
<path d="M21.9355 6.08377C20.3629 5.3004 18.4571 6.0345 17.8164 7.67036L9.73059 28.316C9.59213 28.6696 9.74649 29.0703 10.0863 29.2396C10.4199 29.4058 10.825 29.2953 11.028 28.9829L23.1098 10.3911C24.0835 8.89278 23.5349 6.88056 21.9355 6.08377Z" fill="#FDD835"/>
</svg>
