<svg width="54" height="64" viewBox="0 0 54 64" fill="none" xmlns="http://www.w3.org/2000/svg">
<path d="M12.7116 25.0992C13.5772 23.5704 15.5677 23.1132 17.0136 24.111L35.2627 36.7045C35.5752 36.9202 35.6713 37.3387 35.4843 37.6691C35.3007 37.9934 34.9031 38.1284 34.56 37.9829L14.1469 29.3268C12.5018 28.6292 11.8313 26.6543 12.7116 25.0992Z" fill="#FDD835"/>
<path d="M7.42628 49.2724C7.42811 47.5155 8.93644 46.1386 10.6862 46.2963L32.7692 48.2877C33.1473 48.3218 33.4369 48.639 33.4365 49.0187C33.4361 49.3913 33.1563 49.7044 32.786 49.7464L10.755 52.2477C8.97944 52.4492 7.42441 51.0593 7.42628 49.2724Z" fill="#FDD835"/>
<path d="M31.7821 6.08377C33.3546 5.3004 35.2604 6.0345 35.9011 7.67036L43.9869 28.316C44.1254 28.6696 43.971 29.0703 43.6312 29.2396C43.2977 29.4058 42.8926 29.2953 42.6895 28.9829L30.6077 10.3911C29.634 8.89278 30.1826 6.88056 31.7821 6.08377Z" fill="#FDD835"/>
</svg>
